<svg width="908" height="203" viewBox="0 0 908 203" fill="none" xmlns="http://www.w3.org/2000/svg">
<path d="M188.352 6.24999V118H183.435V13.402L130.689 120.086L78.241 12.061V118H73.324V6.24999H80.327L130.689 109.954L181.498 6.24999H188.352ZM241.062 119.639C234.705 119.639 228.794 118.05 223.331 114.871C217.868 111.692 213.547 107.421 210.368 102.057C207.189 96.5937 205.6 90.733 205.6 84.475C205.6 78.217 207.189 72.406 210.368 67.042C213.547 61.5787 217.868 57.2577 223.331 54.079C228.794 50.9003 234.705 49.311 241.062 49.311C247.519 49.311 253.628 51.0493 259.389 54.526C265.15 57.9033 269.173 62.3237 271.458 67.787V50.95H276.226V118H271.458V101.312C268.776 106.875 264.604 111.345 258.942 114.722C253.379 118 247.419 119.639 241.062 119.639ZM241.36 115.467C246.823 115.467 251.889 114.076 256.558 111.295C261.227 108.414 264.902 104.64 267.584 99.971C270.365 95.203 271.756 90.0377 271.756 84.475C271.756 79.0117 270.365 73.896 267.584 69.128C264.803 64.36 261.078 60.5853 256.409 57.804C251.74 54.9233 246.674 53.483 241.211 53.483C235.748 53.483 230.632 54.9233 225.864 57.804C221.195 60.6847 217.421 64.509 214.54 69.277C211.759 74.045 210.368 79.1607 210.368 84.624C210.368 90.0873 211.759 95.203 214.54 99.971C217.421 104.64 221.245 108.414 226.013 111.295C230.781 114.076 235.897 115.467 241.36 115.467ZM342.266 118L317.83 81.197L293.692 118H288.924L314.999 78.366L296.821 50.95H302.334L317.681 74.194L332.879 50.95H337.647L320.512 77.025L347.779 118H342.266ZM448.249 7.59099C438.415 7.59099 429.425 10.124 421.28 15.19C413.234 20.1567 406.827 26.8617 402.059 35.305C397.39 43.649 395.056 52.6387 395.056 62.274C395.056 72.0087 397.44 81.048 402.208 89.392C406.976 97.736 413.283 104.391 421.131 109.358C429.077 114.225 437.62 116.659 446.759 116.659C452.123 116.659 456.891 116.162 461.063 115.169C465.334 114.176 469.407 112.586 473.281 110.401V75.386H436.329V71.065H478.198V107.272L478.496 107.123V112.636C473.728 115.517 468.811 117.603 463.745 118.894C458.778 120.285 453.315 120.98 447.355 120.98C436.925 120.98 427.339 118.447 418.598 113.381C409.856 108.216 402.903 101.163 397.738 92.223C392.672 83.1837 390.139 73.0517 390.139 61.827C390.139 50.9997 392.771 41.116 398.036 32.176C403.4 23.236 410.502 16.1833 419.343 11.018C428.283 5.85266 437.769 3.26999 447.802 3.26999C454.755 3.26999 460.268 3.91566 464.341 5.207C468.413 6.39899 473.132 8.53466 478.496 11.614V17.127C473.43 13.6503 468.711 11.2167 464.341 9.826C460.069 8.33599 454.705 7.59099 448.249 7.59099ZM527.858 119.639C521.5 119.639 515.59 118.05 510.127 114.871C504.663 111.692 500.342 107.421 497.164 102.057C493.985 96.5937 492.396 90.733 492.396 84.475C492.396 78.217 493.985 72.406 497.164 67.042C500.342 61.5787 504.663 57.2577 510.127 54.079C515.59 50.9003 521.5 49.311 527.858 49.311C534.314 49.311 540.423 51.0493 546.185 54.526C551.946 57.9033 555.969 62.3237 558.254 67.787V50.95H563.022V118H558.254V101.312C555.572 106.875 551.4 111.345 545.738 114.722C540.175 118 534.215 119.639 527.858 119.639ZM528.156 115.467C533.619 115.467 538.685 114.076 543.354 111.295C548.022 108.414 551.698 104.64 554.38 99.971C557.161 95.203 558.552 90.0377 558.552 84.475C558.552 79.0117 557.161 73.896 554.38 69.128C551.598 64.36 547.873 60.5853 543.205 57.804C538.536 54.9233 533.47 53.483 528.007 53.483C522.543 53.483 517.428 54.9233 512.66 57.804C507.991 60.6847 504.216 64.509 501.336 69.277C498.554 74.045 497.164 79.1607 497.164 84.624C497.164 90.0873 498.554 95.203 501.336 99.971C504.216 104.64 508.041 108.414 512.809 111.295C517.577 114.076 522.692 115.467 528.156 115.467ZM581.828 50.95H586.596V66.446C588.583 61.5787 591.464 57.7543 595.238 54.973C599.112 52.1917 603.483 50.801 608.35 50.801C611.43 50.801 614.559 51.4467 617.737 52.738V58.251C614.857 56.0657 611.628 54.973 608.052 54.973C604.476 54.973 601 56.0657 597.622 58.251C594.344 60.4363 591.662 63.3667 589.576 67.042C587.59 70.7173 586.596 74.641 586.596 78.813V118H581.828V50.95ZM645.796 119.639C641.028 119.639 636.806 118.844 633.131 117.255C629.456 115.566 626.823 113.431 625.234 110.848V102.951C627.121 107.222 629.704 110.401 632.982 112.487C636.26 114.474 640.432 115.467 645.498 115.467C650.365 115.467 654.289 113.977 657.269 110.997C660.249 107.918 661.739 103.994 661.739 99.226C661.739 95.1533 660.895 92.0243 659.206 89.839C657.517 87.5543 654.786 85.2697 651.011 82.985L645.349 79.707C641.276 77.2237 638.197 75.2867 636.111 73.896C634.124 72.406 632.535 70.767 631.343 68.979C630.151 67.0917 629.555 64.9063 629.555 62.423C629.555 58.4497 630.946 55.271 633.727 52.887C636.508 50.503 640.134 49.311 644.604 49.311C650.067 49.311 654.637 50.5527 658.312 53.036V59.592C655.233 55.5193 650.812 53.483 645.051 53.483C641.872 53.483 639.29 54.2777 637.303 55.867C635.316 57.4563 634.323 59.4927 634.323 61.976C634.323 64.1613 634.919 66.0983 636.111 67.787C637.303 69.3763 638.942 70.8663 641.028 72.257C643.213 73.6477 646.789 75.7337 651.756 78.515C656.822 81.3957 660.547 84.3757 662.931 87.455C665.315 90.435 666.507 94.3587 666.507 99.226C666.507 105.385 664.471 110.351 660.398 114.126C656.425 117.801 651.557 119.639 645.796 119.639ZM705.345 118.894C697.994 118.894 691.885 116.659 687.018 112.189C682.25 107.719 679.866 101.56 679.866 93.713V23.981H684.634V50.95H705.196V55.122H684.634V93.713C684.634 100.269 686.571 105.434 690.445 109.209C694.418 112.884 699.385 114.722 705.345 114.722V118.894ZM717.878 6.548H722.646V74.194L749.168 50.95H755.277L724.583 77.77L763.025 118H756.618L722.646 82.24V118H717.878V6.548ZM800.976 119.639C794.619 119.639 788.708 118.05 783.245 114.871C777.782 111.692 773.461 107.421 770.282 102.057C767.103 96.5937 765.514 90.733 765.514 84.475C765.514 78.217 767.103 72.406 770.282 67.042C773.461 61.5787 777.782 57.2577 783.245 54.079C788.708 50.9003 794.619 49.311 800.976 49.311C807.433 49.311 813.542 51.0493 819.303 54.526C825.064 57.9033 829.087 62.3237 831.372 67.787V50.95H836.14V118H831.372V101.312C828.69 106.875 824.518 111.345 818.856 114.722C813.293 118 807.333 119.639 800.976 119.639ZM801.274 115.467C806.737 115.467 811.803 114.076 816.472 111.295C821.141 108.414 824.816 104.64 827.498 99.971C830.279 95.203 831.67 90.0377 831.67 84.475C831.67 79.0117 830.279 73.896 827.498 69.128C824.717 64.36 820.992 60.5853 816.323 57.804C811.654 54.9233 806.588 53.483 801.125 53.483C795.662 53.483 790.546 54.9233 785.778 57.804C781.109 60.6847 777.335 64.509 774.454 69.277C771.673 74.045 770.282 79.1607 770.282 84.624C770.282 90.0873 771.673 95.203 774.454 99.971C777.335 104.64 781.159 108.414 785.927 111.295C790.695 114.076 795.811 115.467 801.274 115.467Z" fill="white"/>
<rect y="135" width="908" height="7" fill="white"/>
<path d="M189.322 198V159.225H198.064C200.805 159.225 203.359 159.718 205.725 160.705C208.106 161.692 210.182 163.071 211.952 164.841C213.722 166.596 215.109 168.648 216.112 170.998C217.114 173.348 217.616 175.894 217.616 178.636C217.616 181.362 217.122 183.9 216.135 186.25C215.148 188.6 213.762 190.66 211.976 192.43C210.205 194.185 208.129 195.556 205.748 196.543C203.382 197.514 200.821 198 198.064 198H189.322ZM192.894 194.804H197.735C200.022 194.804 202.137 194.397 204.08 193.582C206.038 192.752 207.746 191.608 209.203 190.151C210.675 188.678 211.819 186.963 212.634 185.004C213.448 183.03 213.856 180.9 213.856 178.612C213.856 176.325 213.448 174.202 212.634 172.244C211.819 170.286 210.675 168.57 209.203 167.097C207.746 165.625 206.038 164.481 204.08 163.666C202.121 162.836 200.006 162.421 197.735 162.421H192.894V194.804ZM233.705 198.752C230.259 198.752 227.29 197.553 224.799 195.156L226.209 192.172C228.277 194.287 230.666 195.344 233.376 195.344C236.008 195.344 238.053 194.53 239.51 192.9C240.982 191.271 241.719 188.976 241.719 186.015V159.225H245.267V187.096C245.267 190.762 244.249 193.621 242.212 195.673C240.176 197.726 237.34 198.752 233.705 198.752ZM268.329 185.85V182.913H283.463V185.85H268.329ZM306.913 198V159.225H310.485V176.991L327.875 159.225H332.387L313.587 178.424L334.361 198H329.332L310.485 180.398V198H306.913ZM359.525 198.752C356.815 198.752 354.277 198.235 351.911 197.201C349.546 196.167 347.47 194.733 345.684 192.9C343.898 191.052 342.496 188.913 341.477 186.485C340.475 184.041 339.973 181.425 339.973 178.636C339.973 175.832 340.475 173.215 341.477 170.787C342.496 168.359 343.898 166.228 345.684 164.395C347.47 162.546 349.546 161.105 351.911 160.071C354.277 159.037 356.815 158.52 359.525 158.52C362.236 158.52 364.774 159.037 367.139 160.071C369.505 161.105 371.581 162.546 373.367 164.395C375.153 166.228 376.547 168.359 377.55 170.787C378.568 173.215 379.077 175.832 379.077 178.636C379.077 181.425 378.568 184.041 377.55 186.485C376.547 188.913 375.153 191.052 373.367 192.9C371.581 194.733 369.505 196.167 367.139 197.201C364.774 198.235 362.236 198.752 359.525 198.752ZM359.525 195.297C361.734 195.297 363.787 194.874 365.682 194.028C367.578 193.182 369.239 192 370.664 190.48C372.106 188.96 373.226 187.19 374.025 185.169C374.824 183.148 375.223 180.97 375.223 178.636C375.223 176.302 374.824 174.124 374.025 172.103C373.226 170.082 372.106 168.312 370.664 166.792C369.239 165.272 367.578 164.089 365.682 163.243C363.787 162.397 361.734 161.974 359.525 161.974C357.316 161.974 355.256 162.397 353.345 163.243C351.449 164.089 349.789 165.272 348.363 166.792C346.937 168.312 345.817 170.082 345.002 172.103C344.203 174.124 343.804 176.302 343.804 178.636C343.804 180.97 344.203 183.148 345.002 185.169C345.817 187.19 346.937 188.96 348.363 190.48C349.789 192 351.449 193.182 353.345 194.028C355.256 194.874 357.316 195.297 359.525 195.297ZM389.347 198V159.225H392.919L413.74 191.913V159.225H417.312V198H413.74L392.919 165.358V198H389.347ZM429.967 198V159.225H449.59V162.374H432.129L433.539 161.316V179.106L432.129 176.991H448.509V180.14H432.129L433.539 178.025V198H429.967ZM459.204 198V159.225H478.733V162.374H462.776V176.991H478.169V180.14H462.776V194.851H478.733V198H459.204ZM489.176 198V159.225H499.234C501.772 159.225 503.965 159.664 505.814 160.541C507.663 161.418 509.088 162.679 510.091 164.324C511.109 165.954 511.618 167.904 511.618 170.176C511.618 172.26 511.188 174.1 510.326 175.698C509.48 177.281 508.274 178.565 506.707 179.552C505.156 180.524 503.307 181.119 501.161 181.338L514.062 198H509.527L497.166 181.667H492.748V198H489.176ZM492.748 178.565H498.388C500.362 178.565 502.062 178.229 503.487 177.555C504.913 176.881 506.01 175.926 506.777 174.688C507.561 173.435 507.952 171.962 507.952 170.27C507.952 167.732 507.106 165.742 505.414 164.301C503.722 162.86 501.38 162.139 498.388 162.139H492.748V178.565ZM518.256 198L533.531 159.225H536.844L552.096 198H548.242L543.518 185.639H526.857L522.086 198H518.256ZM528.055 182.49H542.296L535.176 163.925L528.055 182.49ZM560.961 198V159.225H564.533L585.354 191.913V159.225H588.926V198H585.354L564.533 165.358V198H560.961ZM610.345 198.752C608.34 198.752 606.577 198.454 605.058 197.859C603.538 197.248 602.246 196.519 601.18 195.673C600.131 194.812 599.285 193.974 598.642 193.159C598.016 192.344 597.577 191.733 597.326 191.326L599.371 188.694C599.653 189.133 600.076 189.728 600.64 190.48C601.219 191.216 601.956 191.968 602.849 192.736C603.742 193.488 604.815 194.13 606.068 194.663C607.322 195.18 608.771 195.438 610.416 195.438C611.982 195.438 613.408 195.156 614.693 194.592C615.993 194.028 617.035 193.19 617.818 192.078C618.602 190.966 618.993 189.587 618.993 187.942C618.993 186.563 618.719 185.396 618.171 184.44C617.638 183.469 616.894 182.647 615.938 181.973C614.983 181.299 613.886 180.704 612.648 180.187C611.426 179.654 610.142 179.137 608.794 178.636C607.854 178.276 606.867 177.853 605.833 177.367C604.815 176.866 603.859 176.247 602.966 175.51C602.073 174.758 601.345 173.85 600.781 172.784C600.232 171.719 599.958 170.434 599.958 168.93C599.958 167.52 600.225 166.189 600.757 164.935C601.29 163.682 602.034 162.578 602.99 161.622C603.945 160.651 605.089 159.891 606.421 159.342C607.752 158.794 609.225 158.52 610.839 158.52C612.39 158.52 613.815 158.778 615.116 159.295C616.416 159.797 617.552 160.439 618.523 161.222C619.51 161.99 620.27 162.789 620.803 163.619L618.97 166.087C618.531 165.366 617.92 164.677 617.137 164.019C616.353 163.361 615.429 162.828 614.364 162.421C613.314 161.998 612.147 161.786 610.862 161.786C609.264 161.786 607.901 162.131 606.773 162.82C605.661 163.51 604.815 164.403 604.235 165.499C603.656 166.58 603.366 167.724 603.366 168.93C603.366 170.027 603.593 170.959 604.047 171.727C604.502 172.495 605.105 173.145 605.857 173.677C606.609 174.194 607.431 174.641 608.324 175.017C609.233 175.393 610.142 175.745 611.05 176.074C612.57 176.638 614.027 177.242 615.421 177.884C616.831 178.511 618.085 179.263 619.181 180.14C620.278 181.002 621.147 182.059 621.79 183.312C622.432 184.55 622.753 186.054 622.753 187.824C622.753 190.143 622.205 192.117 621.108 193.746C620.012 195.376 618.531 196.621 616.667 197.483C614.802 198.329 612.695 198.752 610.345 198.752ZM638.667 198.752C635.221 198.752 632.252 197.553 629.761 195.156L631.171 192.172C633.239 194.287 635.628 195.344 638.338 195.344C640.97 195.344 643.015 194.53 644.472 192.9C645.944 191.271 646.681 188.976 646.681 186.015V159.225H650.229V187.096C650.229 190.762 649.211 193.621 647.174 195.673C645.138 197.726 642.302 198.752 638.667 198.752ZM662.488 198V159.225H682.017V162.374H666.06V176.991H681.453V180.14H666.06V194.851H682.017V198H662.488ZM692.46 198V159.225H702.518C705.056 159.225 707.25 159.664 709.098 160.541C710.947 161.418 712.373 162.679 713.375 164.324C714.394 165.954 714.903 167.904 714.903 170.176C714.903 172.26 714.472 174.1 713.61 175.698C712.764 177.281 711.558 178.565 709.991 179.552C708.44 180.524 706.592 181.119 704.445 181.338L717.347 198H712.811L700.45 181.667H696.032V198H692.46ZM696.032 178.565H701.672C703.646 178.565 705.346 178.229 706.772 177.555C708.197 176.881 709.294 175.926 710.062 174.688C710.845 173.435 711.237 171.962 711.237 170.27C711.237 167.732 710.391 165.742 708.699 164.301C707.007 162.86 704.665 162.139 701.672 162.139H696.032V178.565Z" fill="white"/>
</svg>
